<svg xmlns="http://www.w3.org/2000/svg" xmlns:xlink="http://www.w3.org/1999/xlink" width="496"
    zoomAndPan="magnify" viewBox="0 0 372 371.999986" height="496"
    preserveAspectRatio="xMidYMid meet" version="1.0">
    <defs>
        <g />
    </defs>
    <g fill="#000000" fill-opacity="1">
        <g transform="translate(277.591391, 216.287934)">
            <g>
                <path
                    d="M 15.625 19.46875 C 15.882812 18.957031 16.054688 18.53125 16.140625 18.1875 C 16.222656 17.851562 16.195312 17.539062 16.0625 17.25 C 15.9375 16.96875 15.679688 16.691406 15.296875 16.421875 C 14.921875 16.148438 14.367188 15.832031 13.640625 15.46875 L 2.109375 9.765625 C 1.171875 9.296875 0.40625 8.984375 -0.1875 8.828125 C -0.78125 8.671875 -1.269531 8.660156 -1.65625 8.796875 C -2.050781 8.929688 -2.394531 9.191406 -2.6875 9.578125 C -2.988281 9.972656 -3.296875 10.488281 -3.609375 11.125 C -4.273438 12.476562 -4.65625 13.753906 -4.75 14.953125 C -4.851562 16.160156 -4.710938 17.285156 -4.328125 18.328125 C -3.941406 19.367188 -3.3125 20.316406 -2.4375 21.171875 C -1.5625 22.035156 -0.488281 22.785156 0.78125 23.421875 C 2.070312 24.054688 3.425781 24.5 4.84375 24.75 C 6.257812 25 7.640625 24.988281 8.984375 24.71875 C 10.328125 24.445312 11.578125 23.890625 12.734375 23.046875 C 13.898438 22.203125 14.863281 21.007812 15.625 19.46875 Z M 17.203125 20.109375 C 16.140625 22.253906 15.015625 23.898438 13.828125 25.046875 C 12.648438 26.191406 11.398438 27.0625 10.078125 27.65625 C 9.015625 28.15625 7.953125 28.484375 6.890625 28.640625 C 5.835938 28.804688 4.835938 28.859375 3.890625 28.796875 C 2.941406 28.742188 2.050781 28.59375 1.21875 28.34375 C 0.382812 28.101562 -0.335938 27.832031 -0.953125 27.53125 C -1.441406 27.28125 -1.984375 26.953125 -2.578125 26.546875 C -3.171875 26.148438 -3.757812 25.644531 -4.34375 25.03125 C -4.925781 24.425781 -5.460938 23.738281 -5.953125 22.96875 C -6.441406 22.207031 -6.804688 21.359375 -7.046875 20.421875 C -7.242188 19.660156 -7.363281 18.925781 -7.40625 18.21875 C -7.445312 17.507812 -7.398438 16.78125 -7.265625 16.03125 C -7.140625 15.28125 -6.921875 14.492188 -6.609375 13.671875 C -6.304688 12.847656 -5.90625 11.9375 -5.40625 10.9375 L -0.59375 1.1875 L -0.296875 1.328125 C -0.460938 1.828125 -0.515625 2.269531 -0.453125 2.65625 C -0.390625 3.050781 -0.25 3.398438 -0.03125 3.703125 C 0.1875 4.003906 0.484375 4.273438 0.859375 4.515625 C 1.234375 4.753906 1.65625 4.988281 2.125 5.21875 L 16.1875 12.171875 C 16.625 12.390625 17.054688 12.578125 17.484375 12.734375 C 17.921875 12.898438 18.34375 12.988281 18.75 13 C 19.15625 13.019531 19.539062 12.945312 19.90625 12.78125 C 20.28125 12.613281 20.617188 12.300781 20.921875 11.84375 L 21.21875 11.984375 Z M 17.203125 20.109375 " />
            </g>
        </g>
    </g>
    <g fill="#000000" fill-opacity="1">
        <g transform="translate(266.449734, 238.891351)">
            <g>
                <path
                    d="M 8.640625 23.078125 L 4.078125 14.734375 C 2.898438 16.023438 1.6875 16.960938 0.4375 17.546875 C -0.800781 18.128906 -1.90625 18.476562 -2.875 18.59375 Z M 7.484375 28.65625 L 7.234375 28.4375 C 7.546875 27.769531 7.441406 27.210938 6.921875 26.765625 C 6.859375 26.710938 6.734375 26.628906 6.546875 26.515625 C 6.367188 26.398438 6.085938 26.269531 5.703125 26.125 L -12.328125 19 C -13.023438 18.738281 -13.632812 18.5625 -14.15625 18.46875 C -14.675781 18.375 -15.238281 18.539062 -15.84375 18.96875 L -16.09375 18.75 L -10.625 12.375 L -10.375 12.59375 C -10.632812 13.082031 -10.71875 13.582031 -10.625 14.09375 C -10.539062 14.613281 -10.195312 15.132812 -9.59375 15.65625 C -9.050781 16.125 -8.300781 16.507812 -7.34375 16.8125 C -6.382812 17.113281 -5.320312 17.222656 -4.15625 17.140625 C -2.988281 17.054688 -1.765625 16.722656 -0.484375 16.140625 C 0.796875 15.554688 2.007812 14.609375 3.15625 13.296875 L -0.015625 7.625 C -0.453125 6.851562 -0.804688 6.320312 -1.078125 6.03125 C -1.359375 5.738281 -1.546875 5.550781 -1.640625 5.46875 C -2.109375 5.070312 -2.601562 4.921875 -3.125 5.015625 C -3.644531 5.117188 -4.09375 5.351562 -4.46875 5.71875 L -4.71875 5.5 L 0.1875 -0.21875 L 0.4375 0 C 0.300781 0.257812 0.179688 0.523438 0.078125 0.796875 C -0.015625 1.078125 -0.03125 1.421875 0.03125 1.828125 C 0.101562 2.242188 0.257812 2.765625 0.5 3.390625 C 0.738281 4.023438 1.128906 4.835938 1.671875 5.828125 L 9.671875 20.484375 C 9.890625 20.867188 10.085938 21.210938 10.265625 21.515625 C 10.453125 21.828125 10.675781 22.097656 10.9375 22.328125 C 11.195312 22.546875 11.476562 22.625 11.78125 22.5625 C 12.09375 22.5 12.359375 22.378906 12.578125 22.203125 L 12.828125 22.421875 Z M 7.484375 28.65625 " />
            </g>
        </g>
    </g>
    <g fill="#000000" fill-opacity="1">
        <g transform="translate(251.399248, 256.396313)">
            <g>
                <path
                    d="M 13.640625 20.796875 C 13.609375 20.796875 13.554688 20.789062 13.484375 20.78125 C 13.410156 20.769531 13.3125 20.769531 13.1875 20.78125 C 13.0625 20.789062 12.894531 20.847656 12.6875 20.953125 C 12.476562 21.066406 12.207031 21.25 11.875 21.5 L -0.03125 30.3125 C -0.320312 30.519531 -0.550781 30.703125 -0.71875 30.859375 C -0.882812 31.015625 -1.007812 31.148438 -1.09375 31.265625 C -1.175781 31.390625 -1.226562 31.492188 -1.25 31.578125 C -1.28125 31.671875 -1.296875 31.757812 -1.296875 31.84375 L -7.109375 27.03125 L -6.90625 26.75 C -5.28125 27.738281 -3.671875 28.140625 -2.078125 27.953125 C -0.484375 27.765625 1.242188 26.984375 3.109375 25.609375 L -7.640625 11.078125 C -8.335938 10.128906 -9.019531 9.445312 -9.6875 9.03125 C -10.351562 8.613281 -11.117188 8.691406 -11.984375 9.265625 L -12.171875 9 L -5.03125 3.71875 L -4.84375 3.984375 C -5.238281 4.316406 -5.507812 4.648438 -5.65625 4.984375 C -5.800781 5.316406 -5.84375 5.671875 -5.78125 6.046875 C -5.726562 6.421875 -5.582031 6.804688 -5.34375 7.203125 C -5.101562 7.609375 -4.816406 8.035156 -4.484375 8.484375 L 6.390625 23.1875 C 8.128906 21.894531 9.363281 20.507812 10.09375 19.03125 C 10.832031 17.550781 10.9375 15.851562 10.40625 13.9375 L 10.734375 13.828125 Z M 13.640625 20.796875 " />
            </g>
        </g>
    </g>
    <g fill="#000000" fill-opacity="1">
        <g transform="translate(235.368531, 268.649511)">
            <g>
                <path
                    d="M -2.21875 24.53125 L -2.703125 15.046875 C -4.328125 15.691406 -5.828125 16.007812 -7.203125 16 C -8.585938 15.988281 -9.738281 15.820312 -10.65625 15.5 Z M -5.6875 29.0625 L -5.828125 28.765625 C -5.242188 28.296875 -5.09375 27.742188 -5.375 27.109375 C -5.40625 27.035156 -5.476562 26.910156 -5.59375 26.734375 C -5.71875 26.554688 -5.914062 26.3125 -6.1875 26 L -19.34375 11.78125 C -19.851562 11.226562 -20.328125 10.796875 -20.765625 10.484375 C -21.203125 10.179688 -21.785156 10.085938 -22.515625 10.203125 L -22.640625 9.90625 L -14.9375 6.546875 L -14.8125 6.84375 C -15.257812 7.175781 -15.550781 7.59375 -15.6875 8.09375 C -15.832031 8.601562 -15.75 9.21875 -15.4375 9.9375 C -15.144531 10.601562 -14.632812 11.28125 -13.90625 11.96875 C -13.175781 12.65625 -12.265625 13.207031 -11.171875 13.625 C -10.085938 14.050781 -8.84375 14.285156 -7.4375 14.328125 C -6.039062 14.367188 -4.535156 14.046875 -2.921875 13.359375 L -3.34375 6.859375 C -3.394531 5.984375 -3.476562 5.351562 -3.59375 4.96875 C -3.707031 4.582031 -3.789062 4.332031 -3.84375 4.21875 C -4.09375 3.65625 -4.472656 3.304688 -4.984375 3.171875 C -5.503906 3.035156 -6.015625 3.046875 -6.515625 3.203125 L -6.640625 2.90625 L 0.265625 -0.125 L 0.390625 0.171875 C 0.160156 0.367188 -0.0546875 0.566406 -0.265625 0.765625 C -0.484375 0.960938 -0.648438 1.265625 -0.765625 1.671875 C -0.878906 2.078125 -0.960938 2.613281 -1.015625 3.28125 C -1.078125 3.945312 -1.078125 4.84375 -1.015625 5.96875 L -0.171875 22.65625 C -0.140625 23.09375 -0.109375 23.488281 -0.078125 23.84375 C -0.046875 24.195312 0.0351562 24.53125 0.171875 24.84375 C 0.304688 25.164062 0.523438 25.363281 0.828125 25.4375 C 1.140625 25.519531 1.429688 25.53125 1.703125 25.46875 L 1.84375 25.765625 Z M -5.6875 29.0625 " />
            </g>
        </g>
    </g>
    <g fill="#000000" fill-opacity="1">
        <g transform="translate(213.839849, 277.571691)">
            <g />
        </g>
    </g>
    <g fill="#000000" fill-opacity="1">
        <g transform="translate(203.463771, 280.72995)">
            <g>
                <path
                    d="M -10.609375 22.234375 L -7.765625 13.171875 C -9.515625 13.210938 -11.03125 12.988281 -12.3125 12.5 C -13.59375 12.007812 -14.613281 11.453125 -15.375 10.828125 Z M -15.4375 25.28125 L -15.453125 24.953125 C -14.742188 24.710938 -14.410156 24.253906 -14.453125 23.578125 C -14.453125 23.492188 -14.476562 23.347656 -14.53125 23.140625 C -14.582031 22.929688 -14.679688 22.632812 -14.828125 22.25 L -22.25 4.328125 C -22.539062 3.640625 -22.832031 3.070312 -23.125 2.625 C -23.414062 2.1875 -23.925781 1.898438 -24.65625 1.765625 L -24.671875 1.4375 L -16.28125 0.953125 L -16.265625 1.28125 C -16.796875 1.4375 -17.21875 1.722656 -17.53125 2.140625 C -17.84375 2.566406 -17.972656 3.175781 -17.921875 3.96875 C -17.878906 4.6875 -17.632812 5.492188 -17.1875 6.390625 C -16.75 7.285156 -16.09375 8.125 -15.21875 8.90625 C -14.34375 9.6875 -13.253906 10.335938 -11.953125 10.859375 C -10.648438 11.378906 -9.125 11.597656 -7.375 11.515625 L -5.515625 5.28125 C -5.253906 4.4375 -5.113281 3.8125 -5.09375 3.40625 C -5.070312 3.007812 -5.0625 2.75 -5.0625 2.625 C -5.101562 2.007812 -5.335938 1.546875 -5.765625 1.234375 C -6.203125 0.929688 -6.6875 0.769531 -7.21875 0.75 L -7.234375 0.421875 L 0.296875 -0.015625 L 0.3125 0.3125 C 0.03125 0.40625 -0.242188 0.507812 -0.515625 0.625 C -0.785156 0.738281 -1.046875 0.960938 -1.296875 1.296875 C -1.554688 1.640625 -1.828125 2.113281 -2.109375 2.71875 C -2.390625 3.332031 -2.695312 4.171875 -3.03125 5.234375 L -8.03125 21.1875 C -8.15625 21.613281 -8.265625 21.992188 -8.359375 22.328125 C -8.453125 22.671875 -8.488281 23.015625 -8.46875 23.359375 C -8.445312 23.691406 -8.304688 23.953125 -8.046875 24.140625 C -7.785156 24.328125 -7.519531 24.4375 -7.25 24.46875 L -7.234375 24.796875 Z M -15.4375 25.28125 " />
            </g>
        </g>
    </g>
    <g fill="#000000" fill-opacity="1">
        <g transform="translate(180.4973, 282.330566)">
            <g>
                <path
                    d="M -15.390625 21.859375 L -15.328125 21.53125 C -14.796875 21.570312 -14.507812 21.46875 -14.46875 21.21875 C -14.457031 21.175781 -14.476562 21.035156 -14.53125 20.796875 C -14.59375 20.566406 -14.847656 20.179688 -15.296875 19.640625 L -22.3125 11.125 L -23.203125 15.859375 C -23.304688 16.390625 -23.367188 16.894531 -23.390625 17.375 C -23.421875 17.851562 -23.382812 18.285156 -23.28125 18.671875 C -23.175781 19.054688 -22.988281 19.394531 -22.71875 19.6875 C -22.445312 19.976562 -22.050781 20.195312 -21.53125 20.34375 L -21.59375 20.671875 L -28.75 19.3125 L -28.6875 18.984375 C -28.144531 19.015625 -27.691406 18.941406 -27.328125 18.765625 C -26.972656 18.597656 -26.6875 18.351562 -26.46875 18.03125 C -26.25 17.707031 -26.070312 17.335938 -25.9375 16.921875 C -25.800781 16.503906 -25.691406 16.066406 -25.609375 15.609375 L -22.671875 0.203125 C -22.566406 -0.328125 -22.5 -0.820312 -22.46875 -1.28125 C -22.4375 -1.75 -22.46875 -2.171875 -22.5625 -2.546875 C -22.664062 -2.921875 -22.847656 -3.257812 -23.109375 -3.5625 C -23.378906 -3.863281 -23.765625 -4.101562 -24.265625 -4.28125 L -24.203125 -4.609375 L -17.046875 -3.25 L -17.109375 -2.921875 C -17.628906 -2.941406 -18.070312 -2.878906 -18.4375 -2.734375 C -18.800781 -2.585938 -19.097656 -2.363281 -19.328125 -2.0625 C -19.566406 -1.769531 -19.757812 -1.410156 -19.90625 -0.984375 C -20.050781 -0.566406 -20.175781 -0.0820312 -20.28125 0.46875 L -21.015625 4.375 C -21.085938 4.726562 -21.128906 5.035156 -21.140625 5.296875 C -21.148438 5.554688 -21.101562 5.816406 -21 6.078125 C -20.90625 6.347656 -20.75 6.640625 -20.53125 6.953125 C -20.320312 7.273438 -20.03125 7.664062 -19.65625 8.125 L -10 19.875 L -6.828125 3.21875 C -6.734375 2.707031 -6.664062 2.207031 -6.625 1.71875 C -6.582031 1.238281 -6.609375 0.800781 -6.703125 0.40625 C -6.796875 0.0195312 -6.976562 -0.316406 -7.25 -0.609375 C -7.53125 -0.898438 -7.921875 -1.117188 -8.421875 -1.265625 L -8.359375 -1.59375 L -1.28125 -0.25 L -1.34375 0.078125 C -1.882812 0.0546875 -2.335938 0.128906 -2.703125 0.296875 C -3.066406 0.460938 -3.359375 0.707031 -3.578125 1.03125 C -3.796875 1.351562 -3.96875 1.722656 -4.09375 2.140625 C -4.226562 2.554688 -4.335938 2.992188 -4.421875 3.453125 L -7.359375 18.875 C -7.453125 19.351562 -7.515625 19.820312 -7.546875 20.28125 C -7.578125 20.738281 -7.546875 21.164062 -7.453125 21.5625 C -7.359375 21.957031 -7.179688 22.3125 -6.921875 22.625 C -6.671875 22.9375 -6.285156 23.175781 -5.765625 23.34375 L -5.828125 23.671875 Z M -15.390625 21.859375 " />
            </g>
        </g>
    </g>
    <g fill="#000000" fill-opacity="1">
        <g transform="translate(156.438965, 277.836536)">
            <g>
                <path
                    d="M -19.84375 14.578125 L -13.0625 7.9375 C -14.625 7.144531 -15.851562 6.226562 -16.75 5.1875 C -17.65625 4.15625 -18.296875 3.1875 -18.671875 2.28125 Z M -25.546875 14.984375 L -25.421875 14.6875 C -24.679688 14.8125 -24.164062 14.5625 -23.875 13.9375 C -23.832031 13.863281 -23.785156 13.722656 -23.734375 13.515625 C -23.691406 13.316406 -23.640625 13.007812 -23.578125 12.59375 L -21.65625 -6.6875 C -21.570312 -7.445312 -21.554688 -8.085938 -21.609375 -8.609375 C -21.671875 -9.140625 -21.988281 -9.632812 -22.5625 -10.09375 L -22.421875 -10.390625 L -14.796875 -6.859375 L -14.9375 -6.5625 C -15.476562 -6.675781 -15.984375 -6.617188 -16.453125 -6.390625 C -16.929688 -6.160156 -17.335938 -5.6875 -17.671875 -4.96875 C -17.972656 -4.320312 -18.140625 -3.492188 -18.171875 -2.484375 C -18.203125 -1.484375 -18.015625 -0.4375 -17.609375 0.65625 C -17.210938 1.75 -16.5625 2.832031 -15.65625 3.90625 C -14.757812 4.988281 -13.519531 5.90625 -11.9375 6.65625 L -7.34375 2.0625 C -6.726562 1.425781 -6.316406 0.9375 -6.109375 0.59375 C -5.898438 0.257812 -5.769531 0.0351562 -5.71875 -0.078125 C -5.457031 -0.628906 -5.445312 -1.144531 -5.6875 -1.625 C -5.925781 -2.101562 -6.269531 -2.476562 -6.71875 -2.75 L -6.578125 -3.046875 L 0.265625 0.125 L 0.125 0.421875 C -0.164062 0.359375 -0.457031 0.316406 -0.75 0.296875 C -1.039062 0.273438 -1.375 0.351562 -1.75 0.53125 C -2.132812 0.707031 -2.597656 0.992188 -3.140625 1.390625 C -3.679688 1.796875 -4.347656 2.394531 -5.140625 3.1875 L -17.09375 14.875 C -17.40625 15.1875 -17.679688 15.472656 -17.921875 15.734375 C -18.171875 15.992188 -18.367188 16.273438 -18.515625 16.578125 C -18.648438 16.890625 -18.644531 17.1875 -18.5 17.46875 C -18.351562 17.757812 -18.175781 17.984375 -17.96875 18.140625 L -18.09375 18.4375 Z M -25.546875 14.984375 " />
            </g>
        </g>
    </g>
    <g fill="#000000" fill-opacity="1">
        <g transform="translate(135.500071, 268.064365)">
            <g>
                <path
                    d="M -22.890625 13.109375 L -22.6875 12.84375 C -21.8125 13.394531 -21.046875 13.476562 -20.390625 13.09375 C -19.734375 12.707031 -19.082031 12.097656 -18.4375 11.265625 L -9.46875 -0.421875 C -9 -1.023438 -8.65625 -1.546875 -8.4375 -1.984375 C -8.226562 -2.429688 -8.125 -2.832031 -8.125 -3.1875 C -8.132812 -3.539062 -8.242188 -3.863281 -8.453125 -4.15625 C -8.671875 -4.457031 -8.976562 -4.757812 -9.375 -5.0625 C -10.300781 -5.78125 -11.289062 -6.320312 -12.34375 -6.6875 C -13.40625 -7.0625 -14.472656 -7.273438 -15.546875 -7.328125 C -16.628906 -7.378906 -17.71875 -7.273438 -18.8125 -7.015625 C -19.914062 -6.765625 -21.003906 -6.359375 -22.078125 -5.796875 L -22.234375 -6.171875 L -14.125 -11.5 C -14.101562 -11.363281 -14.019531 -11.160156 -13.875 -10.890625 C -13.738281 -10.628906 -13.394531 -10.289062 -12.84375 -9.875 L -1.03125 -0.796875 L -1.234375 -0.53125 C -1.992188 -0.894531 -2.703125 -0.960938 -3.359375 -0.734375 C -4.023438 -0.515625 -4.722656 0.0703125 -5.453125 1.03125 L -15.0625 13.53125 C -15.363281 13.925781 -15.632812 14.320312 -15.875 14.71875 C -16.113281 15.125 -16.28125 15.523438 -16.375 15.921875 C -16.46875 16.316406 -16.46875 16.707031 -16.375 17.09375 C -16.28125 17.476562 -16.039062 17.863281 -15.65625 18.25 L -15.859375 18.515625 Z M -22.890625 13.109375 " />
            </g>
        </g>
    </g>
    <g fill="#000000" fill-opacity="1">
        <g transform="translate(119.91952, 256.356516)">
            <g>
                <path
                    d="M -24.390625 8.921875 L -24.140625 8.703125 C -23.679688 9.160156 -23.265625 9.414062 -22.890625 9.46875 C -22.523438 9.519531 -22.179688 9.410156 -21.859375 9.140625 C -21.484375 8.816406 -21.15625 8.335938 -20.875 7.703125 C -20.59375 7.066406 -20.363281 6.457031 -20.1875 5.875 L -18.1875 -0.453125 L -24.296875 0.53125 C -25.210938 0.664062 -26.050781 0.816406 -26.8125 0.984375 C -27.582031 1.148438 -28.15625 1.394531 -28.53125 1.71875 C -29.070312 2.1875 -29.023438 2.851562 -28.390625 3.71875 L -28.640625 3.9375 L -33.296875 -1.515625 L -33.046875 -1.734375 C -32.710938 -1.460938 -32.382812 -1.242188 -32.0625 -1.078125 C -31.75 -0.921875 -31.40625 -0.828125 -31.03125 -0.796875 C -30.664062 -0.765625 -30.25 -0.765625 -29.78125 -0.796875 C -29.3125 -0.828125 -28.742188 -0.898438 -28.078125 -1.015625 L -17.0625 -2.671875 L -11.859375 -7.109375 C -11.421875 -7.484375 -11.035156 -7.847656 -10.703125 -8.203125 C -10.378906 -8.554688 -10.128906 -8.910156 -9.953125 -9.265625 C -9.785156 -9.628906 -9.722656 -10 -9.765625 -10.375 C -9.804688 -10.757812 -9.988281 -11.160156 -10.3125 -11.578125 L -10.0625 -11.796875 L -4.296875 -5.046875 L -4.546875 -4.828125 C -4.941406 -5.203125 -5.320312 -5.429688 -5.6875 -5.515625 C -6.0625 -5.609375 -6.429688 -5.613281 -6.796875 -5.53125 C -7.160156 -5.445312 -7.523438 -5.28125 -7.890625 -5.03125 C -8.265625 -4.789062 -8.648438 -4.5 -9.046875 -4.15625 L -14.421875 0.421875 L -17.875 11.640625 C -17.988281 12.003906 -18.097656 12.367188 -18.203125 12.734375 C -18.316406 13.109375 -18.394531 13.484375 -18.4375 13.859375 C -18.476562 14.234375 -18.453125 14.597656 -18.359375 14.953125 C -18.273438 15.316406 -18.128906 15.664062 -17.921875 16 L -18.171875 16.21875 Z M -24.390625 8.921875 " />
            </g>
        </g>
    </g>
    <g fill="#000000" fill-opacity="1">
        <g transform="translate(106.210598, 240.562374)">
            <g>
                <path
                    d="M -17.625 6.78125 C -18.582031 7.289062 -19.515625 7.519531 -20.421875 7.46875 C -21.328125 7.414062 -22.175781 7.175781 -22.96875 6.75 C -23.757812 6.332031 -24.46875 5.78125 -25.09375 5.09375 C -25.726562 4.40625 -26.242188 3.691406 -26.640625 2.953125 C -26.992188 2.273438 -27.257812 1.648438 -27.4375 1.078125 C -27.613281 0.503906 -27.773438 -0.0507812 -27.921875 -0.59375 C -28.003906 -0.96875 -28.113281 -1.375 -28.25 -1.8125 C -28.394531 -2.257812 -28.582031 -2.695312 -28.8125 -3.125 C -28.957031 -3.414062 -29.117188 -3.625 -29.296875 -3.75 C -29.472656 -3.875 -29.71875 -3.972656 -30.03125 -4.046875 L -24.203125 -8.78125 L -24 -8.5625 C -24.625 -7.894531 -25.113281 -7.15625 -25.46875 -6.34375 C -25.820312 -5.53125 -26.046875 -4.679688 -26.140625 -3.796875 C -26.242188 -2.921875 -26.210938 -2.039062 -26.046875 -1.15625 C -25.890625 -0.28125 -25.609375 0.546875 -25.203125 1.328125 C -24.960938 1.785156 -24.664062 2.234375 -24.3125 2.671875 C -23.96875 3.117188 -23.585938 3.484375 -23.171875 3.765625 C -22.753906 4.046875 -22.300781 4.222656 -21.8125 4.296875 C -21.332031 4.378906 -20.828125 4.285156 -20.296875 4.015625 C -20.085938 3.898438 -19.898438 3.753906 -19.734375 3.578125 C -19.578125 3.398438 -19.46875 3.128906 -19.40625 2.765625 C -19.34375 2.410156 -19.328125 1.960938 -19.359375 1.421875 C -19.398438 0.878906 -19.503906 0.191406 -19.671875 -0.640625 L -20.703125 -6.046875 C -20.890625 -7.015625 -20.976562 -7.960938 -20.96875 -8.890625 C -20.96875 -9.816406 -20.84375 -10.675781 -20.59375 -11.46875 C -20.34375 -12.257812 -19.957031 -12.984375 -19.4375 -13.640625 C -18.914062 -14.296875 -18.234375 -14.847656 -17.390625 -15.296875 C -16.128906 -15.960938 -14.90625 -16.335938 -13.71875 -16.421875 C -12.539062 -16.515625 -11.421875 -16.351562 -10.359375 -15.9375 C -9.304688 -15.53125 -8.332031 -14.863281 -7.4375 -13.9375 C -6.539062 -13.019531 -5.734375 -11.882812 -5.015625 -10.53125 C -4.640625 -9.832031 -4.347656 -9.15625 -4.140625 -8.5 C -3.941406 -7.84375 -3.769531 -7.21875 -3.625 -6.625 C -3.476562 -6.03125 -3.335938 -5.476562 -3.203125 -4.96875 C -3.078125 -4.46875 -2.914062 -4.023438 -2.71875 -3.640625 C -2.582031 -3.390625 -2.40625 -3.195312 -2.1875 -3.0625 C -1.96875 -2.9375 -1.75 -2.859375 -1.53125 -2.828125 L -8.703125 3.375 L -8.96875 3.125 C -8.175781 2.351562 -7.5 1.492188 -6.9375 0.546875 C -6.382812 -0.398438 -5.988281 -1.394531 -5.75 -2.4375 C -5.507812 -3.488281 -5.445312 -4.5625 -5.5625 -5.65625 C -5.6875 -6.75 -6.03125 -7.832031 -6.59375 -8.90625 C -7.664062 -10.9375 -8.851562 -12.269531 -10.15625 -12.90625 C -11.46875 -13.550781 -12.863281 -13.484375 -14.34375 -12.703125 C -15.019531 -12.347656 -15.523438 -11.910156 -15.859375 -11.390625 C -16.191406 -10.867188 -16.394531 -10.3125 -16.46875 -9.71875 C -16.539062 -9.125 -16.535156 -8.492188 -16.453125 -7.828125 C -16.367188 -7.160156 -16.269531 -6.507812 -16.15625 -5.875 L -15.1875 -0.8125 C -15.0625 -0.09375 -14.960938 0.617188 -14.890625 1.328125 C -14.816406 2.046875 -14.847656 2.738281 -14.984375 3.40625 C -15.117188 4.082031 -15.390625 4.707031 -15.796875 5.28125 C -16.210938 5.851562 -16.820312 6.351562 -17.625 6.78125 Z M -17.625 6.78125 " />
            </g>
        </g>
    </g>
    <g fill="#000000" fill-opacity="1">
        <g transform="translate(96.057131, 221.432985)">
            <g>
                <path
                    d="M -24.3125 5.21875 C -24.289062 5.1875 -24.265625 5.140625 -24.234375 5.078125 C -24.203125 5.023438 -24.171875 4.9375 -24.140625 4.8125 C -24.109375 4.6875 -24.101562 4.503906 -24.125 4.265625 C -24.15625 4.035156 -24.222656 3.71875 -24.328125 3.3125 L -28.25 -10.96875 C -28.34375 -11.3125 -28.429688 -11.585938 -28.515625 -11.796875 C -28.609375 -12.015625 -28.695312 -12.179688 -28.78125 -12.296875 C -28.863281 -12.421875 -28.9375 -12.507812 -29 -12.5625 C -29.0625 -12.613281 -29.140625 -12.65625 -29.234375 -12.6875 L -22.65625 -16.375 L -22.453125 -16.078125 C -23.972656 -14.921875 -24.929688 -13.566406 -25.328125 -12.015625 C -25.722656 -10.460938 -25.613281 -8.570312 -25 -6.34375 L -7.578125 -11.125 C -6.441406 -11.4375 -5.554688 -11.820312 -4.921875 -12.28125 C -4.296875 -12.75 -4.097656 -13.488281 -4.328125 -14.5 L -4.015625 -14.59375 L -1.65625 -6.03125 L -1.96875 -5.9375 C -2.132812 -6.4375 -2.347656 -6.8125 -2.609375 -7.0625 C -2.867188 -7.320312 -3.179688 -7.492188 -3.546875 -7.578125 C -3.921875 -7.660156 -4.332031 -7.660156 -4.78125 -7.578125 C -5.238281 -7.503906 -5.742188 -7.394531 -6.296875 -7.25 L -23.921875 -2.40625 C -23.347656 -0.320312 -22.503906 1.328125 -21.390625 2.546875 C -20.273438 3.765625 -18.726562 4.476562 -16.75 4.6875 L -16.765625 5.03125 Z M -24.3125 5.21875 " />
            </g>
        </g>
    </g>
    <g fill="#000000" fill-opacity="1">
        <g transform="translate(90.939474, 201.641025)">
            <g />
        </g>
    </g>
    <g fill="#000000" fill-opacity="1">
        <g transform="translate(89.682485, 190.628444)">
            <g>
                <path
                    d="M -12.09375 -3.21875 C -12.632812 -3.226562 -13.140625 -3.328125 -13.609375 -3.515625 C -14.085938 -3.703125 -14.507812 -3.96875 -14.875 -4.3125 C -15.238281 -4.65625 -15.519531 -5.0625 -15.71875 -5.53125 C -15.914062 -6 -16.007812 -6.519531 -16 -7.09375 C -15.988281 -7.601562 -15.867188 -8.066406 -15.640625 -8.484375 C -15.421875 -8.910156 -15.128906 -9.269531 -14.765625 -9.5625 C -14.398438 -9.863281 -13.988281 -10.097656 -13.53125 -10.265625 C -13.070312 -10.429688 -12.59375 -10.507812 -12.09375 -10.5 C -11.601562 -10.488281 -11.113281 -10.382812 -10.625 -10.1875 C -10.132812 -10 -9.703125 -9.734375 -9.328125 -9.390625 C -8.953125 -9.054688 -8.648438 -8.65625 -8.421875 -8.1875 C -8.203125 -7.726562 -8.09375 -7.242188 -8.09375 -6.734375 C -8.101562 -6.210938 -8.222656 -5.734375 -8.453125 -5.296875 C -8.679688 -4.859375 -8.984375 -4.484375 -9.359375 -4.171875 C -9.734375 -3.867188 -10.15625 -3.628906 -10.625 -3.453125 C -11.101562 -3.285156 -11.59375 -3.207031 -12.09375 -3.21875 Z M -12.09375 -3.21875 " />
            </g>
        </g>
    </g>
    <g fill="#000000" fill-opacity="1">
        <g transform="translate(89.904366, 178.072591)">
            <g />
        </g>
    </g>
    <g fill="#000000" fill-opacity="1">
        <g transform="translate(90.626546, 167.28599)">
            <g>
                <path
                    d="M -18.03125 -17.265625 C -18.207031 -16.722656 -18.316406 -16.273438 -18.359375 -15.921875 C -18.410156 -15.578125 -18.351562 -15.269531 -18.1875 -15 C -18.019531 -14.726562 -17.726562 -14.484375 -17.3125 -14.265625 C -16.894531 -14.054688 -16.300781 -13.820312 -15.53125 -13.5625 L -3.359375 -9.40625 C -2.367188 -9.0625 -1.566406 -8.847656 -0.953125 -8.765625 C -0.347656 -8.691406 0.132812 -8.75 0.5 -8.9375 C 0.875 -9.125 1.179688 -9.429688 1.421875 -9.859375 C 1.660156 -10.285156 1.894531 -10.832031 2.125 -11.5 C 2.613281 -12.925781 2.828125 -14.242188 2.765625 -15.453125 C 2.710938 -16.660156 2.425781 -17.753906 1.90625 -18.734375 C 1.382812 -19.722656 0.640625 -20.582031 -0.328125 -21.3125 C -1.304688 -22.050781 -2.472656 -22.648438 -3.828125 -23.109375 C -5.191406 -23.578125 -6.585938 -23.84375 -8.015625 -23.90625 C -9.453125 -23.96875 -10.816406 -23.773438 -12.109375 -23.328125 C -13.410156 -22.890625 -14.582031 -22.175781 -15.625 -21.1875 C -16.664062 -20.195312 -17.46875 -18.890625 -18.03125 -17.265625 Z M -19.671875 -17.6875 C -18.898438 -19.957031 -18.003906 -21.738281 -16.984375 -23.03125 C -15.960938 -24.320312 -14.835938 -25.347656 -13.609375 -26.109375 C -12.617188 -26.742188 -11.609375 -27.207031 -10.578125 -27.5 C -9.546875 -27.789062 -8.554688 -27.96875 -7.609375 -28.03125 C -6.660156 -28.101562 -5.753906 -28.070312 -4.890625 -27.9375 C -4.035156 -27.8125 -3.285156 -27.640625 -2.640625 -27.421875 C -2.128906 -27.242188 -1.550781 -26.992188 -0.90625 -26.671875 C -0.257812 -26.347656 0.390625 -25.921875 1.046875 -25.390625 C 1.703125 -24.867188 2.320312 -24.257812 2.90625 -23.5625 C 3.488281 -22.875 3.960938 -22.070312 4.328125 -21.15625 C 4.628906 -20.4375 4.84375 -19.726562 4.96875 -19.03125 C 5.09375 -18.332031 5.140625 -17.597656 5.109375 -16.828125 C 5.085938 -16.066406 4.976562 -15.257812 4.78125 -14.40625 C 4.582031 -13.550781 4.300781 -12.597656 3.9375 -11.546875 L 0.421875 -1.25 L 0.109375 -1.359375 C 0.222656 -1.878906 0.222656 -2.328125 0.109375 -2.703125 C 0.00390625 -3.078125 -0.175781 -3.398438 -0.4375 -3.671875 C -0.707031 -3.953125 -1.039062 -4.179688 -1.4375 -4.359375 C -1.84375 -4.546875 -2.296875 -4.722656 -2.796875 -4.890625 L -17.640625 -9.96875 C -18.097656 -10.125 -18.550781 -10.253906 -19 -10.359375 C -19.445312 -10.460938 -19.875 -10.488281 -20.28125 -10.4375 C -20.6875 -10.394531 -21.0625 -10.269531 -21.40625 -10.0625 C -21.757812 -9.851562 -22.0625 -9.503906 -22.3125 -9.015625 L -22.609375 -9.109375 Z M -19.671875 -17.6875 " />
            </g>
        </g>
    </g>
    <g fill="#000000" fill-opacity="1">
        <g transform="translate(98.726772, 143.430216)">
            <g>
                <path
                    d="M -11.5625 -21.734375 L -5.96875 -14.0625 C -4.96875 -15.5 -3.882812 -16.585938 -2.71875 -17.328125 C -1.5625 -18.078125 -0.507812 -18.566406 0.4375 -18.796875 Z M -11.140625 -27.4375 L -10.875 -27.265625 C -11.101562 -26.546875 -10.929688 -26 -10.359375 -25.625 C -10.285156 -25.582031 -10.148438 -25.519531 -9.953125 -25.4375 C -9.753906 -25.351562 -9.460938 -25.253906 -9.078125 -25.140625 L 9.75 -20.453125 C 10.476562 -20.273438 11.109375 -20.175781 11.640625 -20.15625 C 12.171875 -20.132812 12.703125 -20.367188 13.234375 -20.859375 L 13.515625 -20.6875 L 8.921875 -13.65625 L 8.640625 -13.828125 C 8.828125 -14.359375 8.84375 -14.875 8.6875 -15.375 C 8.53125 -15.875 8.117188 -16.335938 7.453125 -16.765625 C 6.859375 -17.160156 6.066406 -17.445312 5.078125 -17.625 C 4.097656 -17.800781 3.03125 -17.769531 1.875 -17.53125 C 0.726562 -17.289062 -0.4375 -16.800781 -1.625 -16.0625 C -2.8125 -15.320312 -3.894531 -14.222656 -4.875 -12.765625 L -0.96875 -7.5625 C -0.425781 -6.863281 -0.00390625 -6.382812 0.296875 -6.125 C 0.597656 -5.875 0.800781 -5.710938 0.90625 -5.640625 C 1.425781 -5.304688 1.9375 -5.222656 2.4375 -5.390625 C 2.9375 -5.554688 3.351562 -5.835938 3.6875 -6.234375 L 3.96875 -6.0625 L -0.15625 0.25 L -0.4375 0.078125 C -0.332031 -0.210938 -0.242188 -0.5 -0.171875 -0.78125 C -0.109375 -1.070312 -0.140625 -1.414062 -0.265625 -1.8125 C -0.390625 -2.21875 -0.613281 -2.71875 -0.9375 -3.3125 C -1.257812 -3.90625 -1.753906 -4.648438 -2.421875 -5.546875 L -12.25 -19.0625 C -12.53125 -19.40625 -12.773438 -19.71875 -12.984375 -20 C -13.203125 -20.28125 -13.457031 -20.515625 -13.75 -20.703125 C -14.039062 -20.890625 -14.335938 -20.929688 -14.640625 -20.828125 C -14.941406 -20.734375 -15.1875 -20.585938 -15.375 -20.390625 L -15.640625 -20.5625 Z M -11.140625 -27.4375 " />
            </g>
        </g>
    </g>
    <g fill="#000000" fill-opacity="1">
        <g transform="translate(111.36927, 124.106971)">
            <g>
                <path
                    d="M -16.234375 -18.84375 C -16.203125 -18.84375 -16.148438 -18.84375 -16.078125 -18.84375 C -16.003906 -18.84375 -15.90625 -18.851562 -15.78125 -18.875 C -15.664062 -18.90625 -15.507812 -18.988281 -15.3125 -19.125 C -15.113281 -19.269531 -14.863281 -19.484375 -14.5625 -19.765625 L -3.90625 -30.0625 C -3.644531 -30.3125 -3.441406 -30.523438 -3.296875 -30.703125 C -3.148438 -30.878906 -3.046875 -31.03125 -2.984375 -31.15625 C -2.921875 -31.28125 -2.878906 -31.382812 -2.859375 -31.46875 C -2.847656 -31.5625 -2.851562 -31.648438 -2.875 -31.734375 L 3.53125 -27.734375 L 3.359375 -27.421875 C 1.617188 -28.191406 -0.0234375 -28.375 -1.578125 -27.96875 C -3.140625 -27.570312 -4.753906 -26.570312 -6.421875 -24.96875 L 6.125 -11.984375 C 6.945312 -11.128906 7.710938 -10.539062 8.421875 -10.21875 C 9.128906 -9.894531 9.875 -10.070312 10.65625 -10.75 L 10.890625 -10.515625 L 4.5 -4.34375 L 4.265625 -4.578125 C 4.617188 -4.960938 4.847656 -5.328125 4.953125 -5.671875 C 5.054688 -6.023438 5.054688 -6.378906 4.953125 -6.734375 C 4.847656 -7.097656 4.648438 -7.460938 4.359375 -7.828125 C 4.078125 -8.203125 3.742188 -8.59375 3.359375 -9 L -9.34375 -22.140625 C -10.90625 -20.628906 -11.953125 -19.09375 -12.484375 -17.53125 C -13.023438 -15.976562 -12.910156 -14.289062 -12.140625 -12.46875 L -12.453125 -12.3125 Z M -16.234375 -18.84375 " />
            </g>
        </g>
    </g>
    <g fill="#000000" fill-opacity="1">
        <g transform="translate(125.665549, 109.875888)">
            <g>
                <path
                    d="M -0.984375 -24.609375 L 0.734375 -15.265625 C 2.253906 -16.128906 3.695312 -16.640625 5.0625 -16.796875 C 6.4375 -16.960938 7.601562 -16.953125 8.5625 -16.765625 Z M 1.859375 -29.5625 L 2.015625 -29.28125 C 1.503906 -28.738281 1.425781 -28.175781 1.78125 -27.59375 C 1.820312 -27.519531 1.910156 -27.398438 2.046875 -27.234375 C 2.191406 -27.078125 2.425781 -26.859375 2.75 -26.578125 L 17.65625 -14.203125 C 18.238281 -13.722656 18.757812 -13.359375 19.21875 -13.109375 C 19.6875 -12.859375 20.273438 -12.84375 20.984375 -13.0625 L 21.15625 -12.78125 L 13.96875 -8.4375 L 13.796875 -8.71875 C 14.191406 -9.101562 14.425781 -9.554688 14.5 -10.078125 C 14.582031 -10.597656 14.414062 -11.195312 14 -11.875 C 13.632812 -12.488281 13.046875 -13.085938 12.234375 -13.671875 C 11.421875 -14.265625 10.445312 -14.703125 9.3125 -14.984375 C 8.175781 -15.265625 6.910156 -15.328125 5.515625 -15.171875 C 4.117188 -15.023438 2.664062 -14.507812 1.15625 -13.625 L 2.40625 -7.234375 C 2.582031 -6.367188 2.753906 -5.753906 2.921875 -5.390625 C 3.085938 -5.035156 3.203125 -4.804688 3.265625 -4.703125 C 3.578125 -4.171875 4 -3.867188 4.53125 -3.796875 C 5.0625 -3.722656 5.5625 -3.800781 6.03125 -4.03125 L 6.203125 -3.75 L -0.25 0.15625 L -0.421875 -0.125 C -0.203125 -0.34375 -0.00390625 -0.5625 0.171875 -0.78125 C 0.359375 -1.007812 0.484375 -1.332031 0.546875 -1.75 C 0.617188 -2.164062 0.632812 -2.707031 0.59375 -3.375 C 0.5625 -4.050781 0.4375 -4.941406 0.21875 -6.046875 L -2.765625 -22.484375 C -2.859375 -22.921875 -2.941406 -23.3125 -3.015625 -23.65625 C -3.085938 -24 -3.210938 -24.320312 -3.390625 -24.625 C -3.566406 -24.914062 -3.816406 -25.078125 -4.140625 -25.109375 C -4.460938 -25.148438 -4.753906 -25.125 -5.015625 -25.03125 L -5.171875 -25.3125 Z M 1.859375 -29.5625 " />
            </g>
        </g>
    </g>
    <g fill="#000000" fill-opacity="1">
        <g transform="translate(145.84897, 98.220272)">
            <g />
        </g>
    </g>
    <g fill="#000000" fill-opacity="1">
        <g transform="translate(155.784228, 93.815456)">
            <g>
                <path
                    d="M 12.578125 -27.3125 C 13.046875 -27.40625 13.347656 -27.492188 13.484375 -27.578125 C 13.628906 -27.660156 13.78125 -27.816406 13.9375 -28.046875 L 17.03125 -21.078125 L 16.75 -20.890625 C 16.1875 -21.734375 15.507812 -22.425781 14.71875 -22.96875 C 13.925781 -23.507812 13.082031 -23.914062 12.1875 -24.1875 C 11.289062 -24.457031 10.359375 -24.601562 9.390625 -24.625 C 8.421875 -24.644531 7.460938 -24.5625 6.515625 -24.375 C 5.953125 -24.257812 5.472656 -24.132812 5.078125 -24 C 4.679688 -23.863281 4.363281 -23.664062 4.125 -23.40625 C 3.882812 -23.15625 3.734375 -22.828125 3.671875 -22.421875 C 3.609375 -22.015625 3.644531 -21.484375 3.78125 -20.828125 L 4.21875 -18.609375 L 7.328125 -19.21875 C 8.066406 -19.363281 8.671875 -19.519531 9.140625 -19.6875 C 9.609375 -19.863281 9.960938 -20.0625 10.203125 -20.28125 C 10.453125 -20.507812 10.601562 -20.769531 10.65625 -21.0625 C 10.707031 -21.363281 10.691406 -21.71875 10.609375 -22.125 L 10.9375 -22.328125 L 13.953125 -14.46875 L 13.671875 -14.296875 C 13.210938 -15.171875 12.726562 -15.859375 12.21875 -16.359375 C 11.71875 -16.859375 11.164062 -17.195312 10.5625 -17.375 C 9.957031 -17.550781 9.296875 -17.613281 8.578125 -17.5625 C 7.867188 -17.507812 7.066406 -17.394531 6.171875 -17.21875 L 4.5625 -16.90625 L 6.578125 -6.734375 C 6.703125 -6.085938 6.84375 -5.539062 7 -5.09375 C 7.164062 -4.65625 7.40625 -4.320312 7.71875 -4.09375 C 8.03125 -3.875 8.445312 -3.75 8.96875 -3.71875 C 9.488281 -3.6875 10.175781 -3.753906 11.03125 -3.921875 C 13.695312 -4.453125 15.769531 -5.492188 17.25 -7.046875 C 18.738281 -8.597656 19.816406 -10.554688 20.484375 -12.921875 L 20.53125 -13.09375 L 20.90625 -13.046875 L 19.625 -3.40625 C 19.5625 -3.4375 19.410156 -3.5 19.171875 -3.59375 C 18.941406 -3.6875 18.554688 -3.679688 18.015625 -3.578125 L 1.265625 -0.25 L 1.203125 -0.578125 C 2.117188 -0.929688 2.671875 -1.429688 2.859375 -2.078125 C 3.054688 -2.722656 3.039062 -3.625 2.8125 -4.78125 L -0.25 -20.21875 C -0.34375 -20.71875 -0.457031 -21.191406 -0.59375 -21.640625 C -0.738281 -22.085938 -0.929688 -22.476562 -1.171875 -22.8125 C -1.421875 -23.144531 -1.722656 -23.398438 -2.078125 -23.578125 C -2.441406 -23.765625 -2.882812 -23.84375 -3.40625 -23.8125 L -3.46875 -24.125 Z M 12.578125 -27.3125 " />
            </g>
        </g>
    </g>
    <g fill="#000000" fill-opacity="1">
        <g transform="translate(176.889555, 89.282673)">
            <g>
                <path
                    d="M 12.0625 -23.859375 L 12.046875 -23.53125 C 11.523438 -23.5 11.257812 -23.359375 11.25 -23.109375 C 11.25 -23.066406 11.289062 -22.929688 11.375 -22.703125 C 11.46875 -22.472656 11.773438 -22.125 12.296875 -21.65625 L 20.453125 -14.234375 L 20.671875 -19.046875 C 20.691406 -19.585938 20.679688 -20.097656 20.640625 -20.578125 C 20.597656 -21.054688 20.5 -21.476562 20.34375 -21.84375 C 20.1875 -22.207031 19.953125 -22.515625 19.640625 -22.765625 C 19.335938 -23.015625 18.914062 -23.175781 18.375 -23.25 L 18.390625 -23.578125 L 25.671875 -23.265625 L 25.65625 -22.9375 C 25.113281 -22.894531 24.675781 -22.757812 24.34375 -22.53125 C 24.007812 -22.3125 23.753906 -22.023438 23.578125 -21.671875 C 23.410156 -21.328125 23.289062 -20.9375 23.21875 -20.5 C 23.144531 -20.070312 23.097656 -19.625 23.078125 -19.15625 L 22.40625 -3.484375 C 22.382812 -2.941406 22.390625 -2.441406 22.421875 -1.984375 C 22.453125 -1.523438 22.546875 -1.113281 22.703125 -0.75 C 22.859375 -0.382812 23.085938 -0.0703125 23.390625 0.1875 C 23.703125 0.457031 24.117188 0.640625 24.640625 0.734375 L 24.625 1.0625 L 17.34375 0.75 L 17.359375 0.421875 C 17.867188 0.367188 18.296875 0.242188 18.640625 0.046875 C 18.984375 -0.148438 19.25 -0.410156 19.4375 -0.734375 C 19.625 -1.066406 19.753906 -1.453125 19.828125 -1.890625 C 19.910156 -2.335938 19.96875 -2.84375 20 -3.40625 L 20.171875 -7.375 C 20.179688 -7.726562 20.171875 -8.035156 20.140625 -8.296875 C 20.117188 -8.554688 20.039062 -8.8125 19.90625 -9.0625 C 19.769531 -9.3125 19.570312 -9.578125 19.3125 -9.859375 C 19.050781 -10.140625 18.707031 -10.476562 18.28125 -10.875 L 7.03125 -21.109375 L 6.296875 -4.171875 C 6.273438 -3.648438 6.273438 -3.148438 6.296875 -2.671875 C 6.328125 -2.191406 6.421875 -1.757812 6.578125 -1.375 C 6.734375 -1 6.96875 -0.6875 7.28125 -0.4375 C 7.59375 -0.195312 8.003906 -0.0390625 8.515625 0.03125 L 8.5 0.359375 L 1.296875 0.0625 L 1.3125 -0.265625 C 1.851562 -0.316406 2.289062 -0.453125 2.625 -0.671875 C 2.957031 -0.898438 3.207031 -1.1875 3.375 -1.53125 C 3.550781 -1.882812 3.675781 -2.273438 3.75 -2.703125 C 3.820312 -3.140625 3.867188 -3.59375 3.890625 -4.0625 L 4.5625 -19.734375 C 4.582031 -20.222656 4.570312 -20.695312 4.53125 -21.15625 C 4.5 -21.613281 4.40625 -22.03125 4.25 -22.40625 C 4.101562 -22.789062 3.878906 -23.117188 3.578125 -23.390625 C 3.285156 -23.660156 2.867188 -23.84375 2.328125 -23.9375 L 2.34375 -24.265625 Z M 12.0625 -23.859375 " />
            </g>
        </g>
    </g>
    <g fill="#000000" fill-opacity="1">
        <g transform="translate(201.305076, 89.983623)">
            <g>
                <path
                    d="M 26.984375 -10.625 L 26.59375 -10.65625 C 26.570312 -10.769531 26.5 -11.113281 26.375 -11.6875 C 26.25 -12.257812 25.976562 -12.90625 25.5625 -13.625 C 25.15625 -14.351562 24.550781 -15.078125 23.75 -15.796875 C 22.945312 -16.515625 21.847656 -17.09375 20.453125 -17.53125 C 19.171875 -17.945312 17.972656 -18.097656 16.859375 -17.984375 C 15.753906 -17.867188 14.75 -17.539062 13.84375 -17 C 12.9375 -16.457031 12.144531 -15.710938 11.46875 -14.765625 C 10.789062 -13.828125 10.253906 -12.738281 9.859375 -11.5 C 9.398438 -10.039062 9.175781 -8.539062 9.1875 -7 C 9.195312 -5.457031 9.460938 -4.003906 9.984375 -2.640625 C 10.515625 -1.273438 11.300781 -0.0546875 12.34375 1.015625 C 13.394531 2.085938 14.71875 2.878906 16.3125 3.390625 C 17.132812 3.648438 17.820312 3.789062 18.375 3.8125 C 18.925781 3.832031 19.382812 3.726562 19.75 3.5 C 20.113281 3.28125 20.410156 2.941406 20.640625 2.484375 C 20.878906 2.035156 21.101562 1.484375 21.3125 0.828125 L 23.3125 -5.453125 C 23.457031 -5.921875 23.578125 -6.378906 23.671875 -6.828125 C 23.765625 -7.285156 23.785156 -7.710938 23.734375 -8.109375 C 23.691406 -8.515625 23.5625 -8.882812 23.34375 -9.21875 C 23.132812 -9.5625 22.789062 -9.847656 22.3125 -10.078125 L 22.421875 -10.390625 L 30.34375 -7.890625 L 30.234375 -7.578125 C 29.367188 -7.660156 28.773438 -7.535156 28.453125 -7.203125 C 28.128906 -6.867188 27.859375 -6.347656 27.640625 -5.640625 L 24.453125 4.390625 C 24.203125 5.179688 24.113281 5.828125 24.1875 6.328125 C 24.257812 6.835938 24.660156 7.304688 25.390625 7.734375 L 25.296875 8.015625 L 15.875 5.03125 C 14.757812 4.675781 13.757812 4.304688 12.875 3.921875 C 12 3.546875 11.203125 3.117188 10.484375 2.640625 C 9.773438 2.171875 9.132812 1.65625 8.5625 1.09375 C 8 0.539062 7.476562 -0.0703125 7 -0.75 C 6.300781 -1.75 5.78125 -2.769531 5.4375 -3.8125 C 5.101562 -4.851562 4.890625 -5.875 4.796875 -6.875 C 4.710938 -7.875 4.738281 -8.832031 4.875 -9.75 C 5.019531 -10.664062 5.210938 -11.507812 5.453125 -12.28125 C 6.023438 -14.082031 6.832031 -15.570312 7.875 -16.75 C 8.925781 -17.925781 10.125 -18.804688 11.46875 -19.390625 C 12.820312 -19.972656 14.285156 -20.265625 15.859375 -20.265625 C 17.429688 -20.265625 19.050781 -20.003906 20.71875 -19.484375 C 21.3125 -19.296875 21.894531 -19.066406 22.46875 -18.796875 C 23.050781 -18.535156 23.640625 -18.273438 24.234375 -18.015625 C 25.097656 -17.578125 25.660156 -17.316406 25.921875 -17.234375 C 26.597656 -17.015625 27.222656 -17.117188 27.796875 -17.546875 Z M 26.984375 -10.625 " />
            </g>
        </g>
    </g>
    <g fill="#000000" fill-opacity="1">
        <g transform="translate(226.721588, 98.752306)">
            <g>
                <path
                    d="M 20.796875 -16.34375 L 20.640625 -16.0625 C 20.148438 -16.25 19.710938 -16.316406 19.328125 -16.265625 C 18.941406 -16.222656 18.59375 -16.097656 18.28125 -15.890625 C 17.96875 -15.679688 17.679688 -15.394531 17.421875 -15.03125 C 17.160156 -14.675781 16.90625 -14.269531 16.65625 -13.8125 L 9.109375 -0.0625 C 8.867188 0.363281 8.660156 0.796875 8.484375 1.234375 C 8.304688 1.671875 8.195312 2.085938 8.15625 2.484375 C 8.113281 2.878906 8.171875 3.265625 8.328125 3.640625 C 8.484375 4.015625 8.785156 4.367188 9.234375 4.703125 L 9.078125 4.984375 L 1.296875 0.71875 L 1.453125 0.4375 C 1.960938 0.625 2.40625 0.691406 2.78125 0.640625 C 3.164062 0.597656 3.507812 0.472656 3.8125 0.265625 C 4.125 0.0546875 4.40625 -0.222656 4.65625 -0.578125 C 4.914062 -0.929688 5.171875 -1.335938 5.421875 -1.796875 L 13 -15.5625 C 13.226562 -16 13.429688 -16.4375 13.609375 -16.875 C 13.796875 -17.3125 13.90625 -17.734375 13.9375 -18.140625 C 13.96875 -18.546875 13.90625 -18.929688 13.75 -19.296875 C 13.601562 -19.660156 13.304688 -20.003906 12.859375 -20.328125 L 13.015625 -20.609375 Z M 20.796875 -16.34375 " />
            </g>
        </g>
    </g>
    <g fill="#000000" fill-opacity="1">
        <g transform="translate(236.544082, 103.302185)">
            <g>
                <path
                    d="M 23.96875 -11.8125 L 23.765625 -11.5625 C 23.328125 -11.851562 23.023438 -11.90625 22.859375 -11.71875 C 22.835938 -11.6875 22.796875 -11.550781 22.734375 -11.3125 C 22.671875 -11.070312 22.703125 -10.609375 22.828125 -9.921875 L 24.90625 0.90625 L 27.953125 -2.8125 C 28.296875 -3.226562 28.59375 -3.640625 28.84375 -4.046875 C 29.101562 -4.460938 29.28125 -4.863281 29.375 -5.25 C 29.46875 -5.644531 29.46875 -6.03125 29.375 -6.40625 C 29.28125 -6.78125 29.039062 -7.160156 28.65625 -7.546875 L 28.859375 -7.796875 L 34.484375 -3.1875 L 34.28125 -2.9375 C 33.8125 -3.226562 33.378906 -3.382812 32.984375 -3.40625 C 32.585938 -3.425781 32.210938 -3.347656 31.859375 -3.171875 C 31.515625 -2.992188 31.179688 -2.753906 30.859375 -2.453125 C 30.546875 -2.148438 30.242188 -1.816406 29.953125 -1.453125 L 20 10.671875 C 19.65625 11.097656 19.359375 11.503906 19.109375 11.890625 C 18.859375 12.273438 18.6875 12.65625 18.59375 13.03125 C 18.5 13.414062 18.5 13.804688 18.59375 14.203125 C 18.6875 14.597656 18.90625 14.988281 19.25 15.375 L 19.046875 15.625 L 13.421875 11.015625 L 13.625 10.765625 C 14.070312 11.023438 14.488281 11.175781 14.875 11.21875 C 15.269531 11.269531 15.640625 11.21875 15.984375 11.0625 C 16.328125 10.914062 16.660156 10.691406 16.984375 10.390625 C 17.316406 10.085938 17.664062 9.722656 18.03125 9.296875 L 20.546875 6.21875 C 20.773438 5.9375 20.957031 5.679688 21.09375 5.453125 C 21.238281 5.234375 21.328125 4.984375 21.359375 4.703125 C 21.398438 4.421875 21.398438 4.085938 21.359375 3.703125 C 21.328125 3.328125 21.257812 2.847656 21.15625 2.265625 L 18.28125 -12.65625 L 7.53125 0.4375 C 7.195312 0.84375 6.894531 1.242188 6.625 1.640625 C 6.363281 2.046875 6.179688 2.445312 6.078125 2.84375 C 5.984375 3.238281 5.984375 3.628906 6.078125 4.015625 C 6.179688 4.398438 6.414062 4.78125 6.78125 5.15625 L 6.578125 5.40625 L 1 0.828125 L 1.203125 0.578125 C 1.671875 0.859375 2.101562 1.007812 2.5 1.03125 C 2.894531 1.0625 3.265625 0.984375 3.609375 0.796875 C 3.960938 0.617188 4.296875 0.378906 4.609375 0.078125 C 4.929688 -0.222656 5.238281 -0.554688 5.53125 -0.921875 L 15.484375 -13.046875 C 15.796875 -13.421875 16.078125 -13.800781 16.328125 -14.1875 C 16.578125 -14.570312 16.753906 -14.960938 16.859375 -15.359375 C 16.960938 -15.753906 16.972656 -16.148438 16.890625 -16.546875 C 16.816406 -16.941406 16.597656 -17.335938 16.234375 -17.734375 L 16.4375 -17.984375 Z M 23.96875 -11.8125 " />
            </g>
        </g>
    </g>
    <g fill="#000000" fill-opacity="1">
        <g transform="translate(255.477453, 118.843795)">
            <g>
                <path
                    d="M 30.0625 -0.515625 C 30.34375 -0.140625 30.550781 0.09375 30.6875 0.1875 C 30.820312 0.28125 31.03125 0.34375 31.3125 0.375 L 26.375 6.1875 L 26.09375 6.03125 C 26.601562 5.144531 26.929688 4.226562 27.078125 3.28125 C 27.222656 2.34375 27.222656 1.410156 27.078125 0.484375 C 26.929688 -0.441406 26.65625 -1.347656 26.25 -2.234375 C 25.851562 -3.117188 25.367188 -3.941406 24.796875 -4.703125 C 24.453125 -5.160156 24.125 -5.535156 23.8125 -5.828125 C 23.507812 -6.128906 23.191406 -6.332031 22.859375 -6.4375 C 22.535156 -6.550781 22.175781 -6.546875 21.78125 -6.421875 C 21.394531 -6.296875 20.9375 -6.03125 20.40625 -5.625 L 18.59375 -4.265625 L 20.484375 -1.734375 C 20.941406 -1.128906 21.347656 -0.648438 21.703125 -0.296875 C 22.066406 0.046875 22.398438 0.273438 22.703125 0.390625 C 23.015625 0.515625 23.316406 0.535156 23.609375 0.453125 C 23.898438 0.367188 24.210938 0.203125 24.546875 -0.046875 L 24.84375 0.15625 L 19.09375 6.296875 L 18.8125 6.125 C 19.40625 5.3125 19.816406 4.570312 20.046875 3.90625 C 20.273438 3.238281 20.335938 2.59375 20.234375 1.96875 C 20.128906 1.351562 19.894531 0.734375 19.53125 0.109375 C 19.175781 -0.503906 18.722656 -1.179688 18.171875 -1.921875 L 17.203125 -3.21875 L 8.9375 3 C 8.394531 3.40625 7.960938 3.769531 7.640625 4.09375 C 7.316406 4.425781 7.117188 4.78125 7.046875 5.15625 C 6.984375 5.539062 7.050781 5.972656 7.25 6.453125 C 7.445312 6.941406 7.800781 7.53125 8.3125 8.21875 C 9.945312 10.394531 11.785156 11.816406 13.828125 12.484375 C 15.878906 13.148438 18.113281 13.269531 20.53125 12.84375 L 20.703125 12.8125 L 20.84375 13.171875 L 11.578125 16.203125 C 11.585938 16.128906 11.582031 15.96875 11.5625 15.71875 C 11.550781 15.46875 11.375 15.117188 11.03125 14.671875 L 0.78125 1.03125 L 1.046875 0.828125 C 1.753906 1.492188 2.441406 1.773438 3.109375 1.671875 C 3.773438 1.578125 4.582031 1.175781 5.53125 0.46875 L 18.109375 -9 C 18.515625 -9.300781 18.890625 -9.613281 19.234375 -9.9375 C 19.578125 -10.257812 19.84375 -10.597656 20.03125 -10.953125 C 20.226562 -11.316406 20.332031 -11.703125 20.34375 -12.109375 C 20.351562 -12.515625 20.226562 -12.945312 19.96875 -13.40625 L 20.234375 -13.59375 Z M 30.0625 -0.515625 " />
            </g>
        </g>
    </g>
    <g fill="#000000" fill-opacity="1">
        <g transform="translate(268.597635, 136.041394)">
            <g>
                <path
                    d="M 29.421875 6.1875 C 29.617188 6.613281 29.769531 6.882812 29.875 7 C 29.988281 7.125 30.179688 7.234375 30.453125 7.328125 L 24.328125 11.890625 L 24.109375 11.6875 C 24.796875 10.9375 25.316406 10.117188 25.671875 9.234375 C 26.023438 8.347656 26.234375 7.4375 26.296875 6.5 C 26.359375 5.5625 26.289062 4.617188 26.09375 3.671875 C 25.90625 2.722656 25.613281 1.8125 25.21875 0.9375 C 24.988281 0.414062 24.757812 -0.0195312 24.53125 -0.375 C 24.300781 -0.738281 24.035156 -1.007812 23.734375 -1.1875 C 23.429688 -1.375 23.078125 -1.445312 22.671875 -1.40625 C 22.265625 -1.363281 21.753906 -1.207031 21.140625 -0.9375 L 19.078125 -0.015625 L 20.359375 2.859375 C 20.671875 3.554688 20.960938 4.113281 21.234375 4.53125 C 21.515625 4.945312 21.789062 5.25 22.0625 5.4375 C 22.332031 5.625 22.617188 5.707031 22.921875 5.6875 C 23.222656 5.675781 23.5625 5.585938 23.9375 5.421875 L 24.203125 5.6875 L 17.203125 10.375 L 16.984375 10.15625 C 17.742188 9.5 18.304688 8.867188 18.671875 8.265625 C 19.046875 7.671875 19.25 7.054688 19.28125 6.421875 C 19.320312 5.796875 19.238281 5.140625 19.03125 4.453125 C 18.820312 3.765625 18.53125 3.003906 18.15625 2.171875 L 17.5 0.6875 L 8.03125 4.921875 C 7.425781 5.191406 6.929688 5.453125 6.546875 5.703125 C 6.160156 5.953125 5.890625 6.253906 5.734375 6.609375 C 5.578125 6.960938 5.539062 7.398438 5.625 7.921875 C 5.71875 8.441406 5.9375 9.09375 6.28125 9.875 C 7.394531 12.363281 8.875 14.15625 10.71875 15.25 C 12.5625 16.351562 14.710938 16.96875 17.171875 17.09375 L 17.34375 17.109375 L 17.375 17.484375 L 7.6875 18.375 C 7.707031 18.300781 7.738281 18.140625 7.78125 17.890625 C 7.820312 17.648438 7.726562 17.273438 7.5 16.765625 L 0.53125 1.1875 L 0.828125 1.046875 C 1.378906 1.847656 1.992188 2.273438 2.671875 2.328125 C 3.347656 2.378906 4.222656 2.164062 5.296875 1.6875 L 19.65625 -4.734375 C 20.125 -4.941406 20.5625 -5.164062 20.96875 -5.40625 C 21.375 -5.644531 21.707031 -5.914062 21.96875 -6.21875 C 22.238281 -6.53125 22.421875 -6.882812 22.515625 -7.28125 C 22.617188 -7.675781 22.597656 -8.117188 22.453125 -8.609375 L 22.75 -8.75 Z M 29.421875 6.1875 " />
            </g>
        </g>
    </g>
    <g fill="#000000" fill-opacity="1">
        <g transform="translate(277.599527, 155.698131)">
            <g>
                <path
                    d="M 24.578125 7.765625 C 24.304688 6.390625 24.007812 5.363281 23.6875 4.6875 C 23.550781 4.414062 23.40625 4.203125 23.25 4.046875 C 23.09375 3.898438 22.882812 3.800781 22.625 3.75 C 22.363281 3.707031 22.03125 3.707031 21.625 3.75 C 21.21875 3.789062 20.691406 3.878906 20.046875 4.015625 L 14.4375 5.09375 C 14.78125 5.789062 15.242188 6.609375 15.828125 7.546875 C 16.421875 8.484375 17.082031 9.367188 17.8125 10.203125 C 18.539062 11.046875 19.3125 11.734375 20.125 12.265625 C 20.945312 12.796875 21.769531 12.984375 22.59375 12.828125 C 23.257812 12.691406 23.757812 12.453125 24.09375 12.109375 C 24.4375 11.765625 24.65625 11.359375 24.75 10.890625 C 24.851562 10.429688 24.875 9.925781 24.8125 9.375 C 24.757812 8.832031 24.679688 8.296875 24.578125 7.765625 Z M 26.90625 10.84375 C 27.113281 11.90625 27.179688 12.789062 27.109375 13.5 C 27.035156 14.21875 26.863281 14.789062 26.59375 15.21875 C 26.332031 15.644531 25.988281 15.957031 25.5625 16.15625 C 25.132812 16.363281 24.679688 16.515625 24.203125 16.609375 C 23.472656 16.753906 22.785156 16.726562 22.140625 16.53125 C 21.503906 16.34375 20.894531 16.050781 20.3125 15.65625 C 19.726562 15.257812 19.175781 14.789062 18.65625 14.25 C 18.132812 13.707031 17.644531 13.144531 17.1875 12.5625 C 16.4375 13.5625 15.628906 14.484375 14.765625 15.328125 C 13.910156 16.179688 13.0625 16.957031 12.21875 17.65625 C 11.382812 18.363281 10.585938 18.984375 9.828125 19.515625 C 9.066406 20.046875 8.382812 20.515625 7.78125 20.921875 C 7.269531 21.242188 6.835938 21.53125 6.484375 21.78125 C 6.140625 22.039062 5.859375 22.285156 5.640625 22.515625 C 5.421875 22.742188 5.265625 22.984375 5.171875 23.234375 C 5.085938 23.492188 5.046875 23.800781 5.046875 24.15625 L 4.71875 24.21875 L 3.203125 16.40625 L 3.53125 16.34375 C 3.707031 16.738281 3.914062 17.039062 4.15625 17.25 C 4.40625 17.457031 4.757812 17.515625 5.21875 17.421875 C 5.945312 17.285156 6.738281 16.945312 7.59375 16.40625 C 8.445312 15.875 9.316406 15.234375 10.203125 14.484375 C 11.085938 13.734375 11.945312 12.921875 12.78125 12.046875 C 13.625 11.179688 14.382812 10.351562 15.0625 9.5625 L 12.734375 5.4375 L 5.8125 6.78125 C 5.28125 6.882812 4.789062 7.003906 4.34375 7.140625 C 3.90625 7.285156 3.523438 7.46875 3.203125 7.6875 C 2.890625 7.914062 2.644531 8.207031 2.46875 8.5625 C 2.300781 8.925781 2.238281 9.378906 2.28125 9.921875 L 1.953125 9.984375 L 0.25 1.265625 L 0.578125 1.203125 C 0.765625 1.703125 1 2.082031 1.28125 2.34375 C 1.5625 2.613281 1.878906 2.800781 2.234375 2.90625 C 2.585938 3.019531 2.984375 3.0625 3.421875 3.03125 C 3.859375 3 4.332031 2.929688 4.84375 2.828125 L 20.234375 -0.171875 C 20.722656 -0.265625 21.191406 -0.378906 21.640625 -0.515625 C 22.085938 -0.660156 22.476562 -0.851562 22.8125 -1.09375 C 23.144531 -1.34375 23.40625 -1.640625 23.59375 -1.984375 C 23.78125 -2.328125 23.859375 -2.773438 23.828125 -3.328125 L 24.140625 -3.390625 Z M 26.90625 10.84375 " />
            </g>
        </g>
    </g>
    <g fill="#000000" fill-opacity="1">
        <g transform="translate(281.508964, 177.946281)">
            <g />
        </g>
    </g>
    <g fill="#000000" fill-opacity="1">
        <g transform="translate(281.809301, 189.029432)">
            <g>
                <path
                    d="M 11.765625 4.25 C 12.296875 4.300781 12.789062 4.441406 13.25 4.671875 C 13.707031 4.910156 14.101562 5.210938 14.4375 5.578125 C 14.78125 5.941406 15.023438 6.367188 15.171875 6.859375 C 15.328125 7.347656 15.378906 7.878906 15.328125 8.453125 C 15.273438 8.953125 15.117188 9.398438 14.859375 9.796875 C 14.597656 10.203125 14.269531 10.539062 13.875 10.8125 C 13.488281 11.082031 13.0625 11.273438 12.59375 11.390625 C 12.125 11.515625 11.644531 11.550781 11.15625 11.5 C 10.664062 11.445312 10.179688 11.304688 9.703125 11.078125 C 9.234375 10.847656 8.828125 10.546875 8.484375 10.171875 C 8.140625 9.796875 7.875 9.367188 7.6875 8.890625 C 7.5 8.410156 7.429688 7.921875 7.484375 7.421875 C 7.535156 6.898438 7.691406 6.425781 7.953125 6 C 8.222656 5.582031 8.554688 5.238281 8.953125 4.96875 C 9.359375 4.695312 9.800781 4.492188 10.28125 4.359375 C 10.769531 4.234375 11.265625 4.195312 11.765625 4.25 Z M 11.765625 4.25 " />
            </g>
        </g>
    </g>
</svg>